# xmcd CD database file
# Generated: Fri May 31 22:25:05 2002 by KSCD
# 
# Track frame offsets:
#       150
#       16425
#       34420
#       44517
#       54782
#       65492
#       79200
#       89212
#       103277
#       120047
#       131805
#       143810
#       151345
#       163070
#       175157
#       184755
#       201200
#       211590
#       222420
#       239535
#       250592
#       261400
#       269775
#       279832
#       290712
#       300387
#       311425
#       326960
#       334045
#
# Disc length: 4559 seconds
#
# Revision: 1
# Processed by: cddbd v1.4PL0 Copyright (c) Steve Scherf et al.
# Submitted via: Kscd 1.3.2
#
DISCID=bb11cd1d
DTITLE=Bill Clifton - Around The World To Poor Valley 4
DYEAR=1900
DGENRE=
TTITLE0=Going Back To Dixie
TTITLE1=Mother Still Prays For You
TTITLE2=Moonshiner
TTITLE3=Just A Smile
TTITLE4=Lonely Little Cabin
TTITLE5=Dream Of The Miner's Child
TTITLE6=Groundhog Hunt
TTITLE7=Engine 23
TTITLE8=Jim Hatfield's Son
TTITLE9=Saturday Night
TTITLE10=Lonesome For You
TTITLE11=Lazy Courtship
TTITLE12=Across The Shining River
TTITLE13=Roll The Cotton Down
TTITLE14=Take Me Back
TTITLE15=Lonesome Field
TTITLE16=Little Green Valley
TTITLE17=When I Lay My Burdens Down
TTITLE18=At My Window
TTITLE19=Gonna Lay Down My Old Guitar
TTITLE20=Where The Willow Gently Sways
TTITLE21=When I'm With You
TTITLE22=My Nights Are Lonely
TTITLE23=Lamp In The Window
TTITLE24=Louis Collins
TTITLE25=I'll Be Satisfied
TTITLE26=Old Ruben
TTITLE27=My Cindy Girl
TTITLE28=Dixie Ramble (Bluegrass Ramble)
EXTD=null
EXTT0=null
EXTT1=null
EXTT2=null
EXTT3=null
EXTT4=null
EXTT5=null
EXTT6=null
EXTT7=null
EXTT8=null
EXTT9=null
EXTT10=null
EXTT11=null
EXTT12=null
EXTT13=null
EXTT14=null
EXTT15=null
EXTT16=null
EXTT17=null
EXTT18=null
EXTT19=null
EXTT20=null
EXTT21=null
EXTT22=null
EXTT23=null
EXTT24=null
EXTT25=null
EXTT26=null
EXTT27=null
EXTT28=null
PLAYORDER=
